# xmcd
#
# Track frame offsets: 
#        150
#        15554
#        36413
#        64159
#        75619
#        95231
#        117886
#        139024
#        145849
#        169819
#        175656
#        194150
#        214830
#        228647
#        245347
#        270207
#        291352
#
# Disc length: 4309 seconds
#
# Revision: 0
# Processed by: cddbd v1.5.2PL0 Copyright (c) Steve Scherf et al.
# Submitted via: ExactAudioCopyFreeDBPlugin 1.0
#
DISCID=fc10d311
DTITLE=Eddy Mitchell - Ma dernière séance - Disc 2
DYEAR=2011
DGENRE=Blues
TTITLE0=J'aime avril à Paris
TTITLE1=Rio Grande
TTITLE2=18 ans demain
TTITLE3=Interlude
TTITLE4=Le cimetière des éléphants
TTITLE5=Lèche-bottes blues
TTITLE6=Couleur menthe à l'eau
TTITLE7=The last train
TTITLE8=Pas de boogie woogie
TTITLE9=C'est pourtant vrai
TTITLE10=Come back
TTITLE11=L'esprit grande prairie (avec A. Souchon et L. Voulzy)
TTITLE12=Sur la route de Menphis (avec J.J. Milteau)
TTITLE13=Vieille Canaille (avec L. Gerra)
TTITLE14=Le blues du blanc (avec T. Dutronc)
TTITLE15=Couleur menthe à l'eau (avec O. Ruiz)
TTITLE16=Pas de Boogie Woogie (avec P. Obispo)
EXTD=
EXTT0=
EXTT1=
EXTT2=
EXTT3=
EXTT4=
EXTT5=
EXTT6=
EXTT7=
EXTT8=
EXTT9=
EXTT10=
EXTT11=
EXTT12=
EXTT13=
EXTT14=
EXTT15=
EXTT16=
PLAYORDER=
